<svg xmlns="http://www.w3.org/2000/svg" viewBox="0 0 512 512"><defs><style>.cls-1{fill:#e9d146;}.cls-2{fill:#efe097;}.cls-3{fill:#9cbcc6;}.cls-4{fill:#a8cbd8;}.cls-5{fill:#78a4ea;}.cls-6{fill:#c25c9e;}.cls-7{fill:#b25798;}.cls-8{fill:#729ed7;}.cls-9{fill:#313c81;}.cls-10{fill:#af5695;}.cls-11{fill:#bb978f;}.cls-12{fill:#d2ada4;}.cls-13{fill:#efc9ba;}.cls-14{fill:#f5f2f1;}.cls-15{fill:#fff;}</style></defs><title>Beauty</title><g id="BULINE"><path class="cls-1" d="M512,256c0,141.38-114.62,256-256,256A256.12,256.12,0,0,1,36.21,387.31c-.66-1.08-1.3-2.17-1.93-3.27A254.67,254.67,0,0,1,0,256C0,114.62,114.62,0,256,0S512,114.62,512,256Z"/></g><g id="Icons"><circle class="cls-2" cx="147.76" cy="172" r="51.76"/><circle class="cls-2" cx="316" cy="336" r="51.76"/><circle class="cls-2" cx="352.17" cy="96.52" r="40.52"/><circle class="cls-2" cx="56" cy="312.68" r="40.52"/><path class="cls-3" d="M432.9,123.49v26H361.6v-26a17.65,17.65,0,0,1,17.65-17.65h36A17.65,17.65,0,0,1,432.9,123.49Z"/><path class="cls-4" d="M432.9,123.49v26H370.1v-26a17.65,17.65,0,0,1,17.65-17.65h27.5A17.65,17.65,0,0,1,432.9,123.49Z"/><path class="cls-3" d="M466.25,190.28V387a27.09,27.09,0,0,1-27.08,27.08H355.33A27.09,27.09,0,0,1,328.25,387V190.28a44.67,44.67,0,0,1,44.67-44.67h48.66A44.67,44.67,0,0,1,466.25,190.28Z"/><path class="cls-4" d="M466.25,190.28V387c0,15-12.91,27.08-28.83,27.08H366.26c-15.92,0-28.83-12.13-28.83-27.08V190.28c0-24.67,21.29-44.67,47.56-44.67h33.7C445,145.61,466.25,165.61,466.25,190.28Z"/><path class="cls-5" d="M457.07,227.92V382.25a23.48,23.48,0,0,1-23.48,23.47H360.91a23.48,23.48,0,0,1-23.48-23.47V227.92Z"/><path class="cls-5" d="M457.07,227.92V382.25a23.48,23.48,0,0,1-23.48,23.47H375.65a23.48,23.48,0,0,1-23.48-23.47V227.92Z"/><path class="cls-5" d="M337.43,227.92s4.05-6.5,17.88-7.26a13.11,13.11,0,0,1,4.65.63c3.73,1.17,12.17,3.05,20-.7,0,0,11.68-4,21.84,0a34.7,34.7,0,0,0,21.16,0s9.75-3.5,18,0c0,0,16.07.41,16.07,7.33Z"/><rect class="cls-3" x="357.92" y="116.84" width="79.5" height="9" rx="4.5"/><rect class="cls-3" x="357.92" y="131.67" width="79.5" height="9" rx="4.5"/><rect class="cls-2" x="353.17" y="243.73" width="85.25" height="92.45" rx="8.59"/><path class="cls-6" d="M372.52,294.93a23.27,23.27,0,1,0,46.54,0c0-12.85-23.27-34.46-23.27-34.46S372.52,282.08,372.52,294.93Z"/><path class="cls-7" d="M381.35,294.93c0-9.27,12.11-23.1,18.86-30.08-2.61-2.7-4.42-4.38-4.42-4.38s-23.27,21.61-23.27,34.46a23.27,23.27,0,0,0,23.27,23.27,23.83,23.83,0,0,0,4.42-.42A23.28,23.28,0,0,1,381.35,294.93Z"/><path class="cls-8" d="M251.17,259a19.1,19.1,0,0,1-15.11,18.68,18.66,18.66,0,0,1-4,.42A19.1,19.1,0,0,1,213,259c0-10.54,19.1-28.28,19.1-28.28s1.65,1.54,4,4C241.65,240.49,251.17,251.52,251.17,259Z"/><path class="cls-5" d="M251.17,259a19.1,19.1,0,0,1-15.11,18.68A19.09,19.09,0,0,1,220.94,259c0-7.44,9.52-18.47,15.12-24.31C241.65,240.49,251.17,251.52,251.17,259Z"/><path class="cls-9" d="M249.26,159.72h20a0,0,0,0,1,0,0V207a9,9,0,0,1-9,9h-2a9,9,0,0,1-9-9V159.72A0,0,0,0,1,249.26,159.72Z" transform="matrix(0.82, 0.57, -0.57, 0.82, 151.6, -113.66)"/><path class="cls-9" d="M235.8,202.94h10a0,0,0,0,1,0,0v18.17a5,5,0,0,1-5,5h0a5,5,0,0,1-5-5V202.94a0,0,0,0,1,0,0Z" transform="translate(163.43 -98.56) rotate(34.42)"/><path class="cls-10" d="M321.74,178.94l-8.14,11.87a7.52,7.52,0,0,1-10.46,1.95l-64.26-44a7.53,7.53,0,0,1-2-10.47l8.14-11.87a24.49,24.49,0,0,1,31.87-7.67c.73.4,1.44.84,2.14,1.32l36.32,24.88a21.18,21.18,0,0,1,2,1.52,24.49,24.49,0,0,1,4.37,32.5Z"/><path class="cls-6" d="M321.74,178.94l-8.14,11.87a7.52,7.52,0,0,1-10.46,1.95l-53.95-37a7.52,7.52,0,0,1-2-10.46l8.14-11.87a24.5,24.5,0,0,1,31.87-7.67,23.57,23.57,0,0,1,2.14,1.31l26,17.82a21.18,21.18,0,0,1,2,1.52,24.49,24.49,0,0,1,4.37,32.5Z"/><path class="cls-10" d="M337.28,113l-21.89,32-36.74-25.17,21.9-32A22.26,22.26,0,0,1,331.5,82,23.33,23.33,0,0,1,335,84.93a22.28,22.28,0,0,1,2.32,28Z"/><path class="cls-6" d="M337.28,113l-21.89,32-29.31-20.08,21.9-32a22.27,22.27,0,0,1,27-7.95,22.28,22.28,0,0,1,2.32,28Z"/><rect class="cls-11" x="131.76" y="356.67" width="128.31" height="28.04"/><path class="cls-11" d="M254.76,346.78h49.47a22.71,22.71,0,0,1,22.71,22.71v5.87a0,0,0,0,1,0,0H254.76a0,0,0,0,1,0,0V346.78A0,0,0,0,1,254.76,346.78Z" transform="translate(-87.91 93.67) rotate(-15.93)"/><rect class="cls-12" x="147.76" y="367.08" width="128.31" height="28.04"/><path class="cls-12" d="M270.76,357.19h49.47a22.71,22.71,0,0,1,22.71,22.71v5.87a0,0,0,0,1,0,0H270.76a0,0,0,0,1,0,0V357.19a0,0,0,0,1,0,0Z" transform="translate(-90.15 98.46) rotate(-15.93)"/><polygon class="cls-13" points="254.93 443.33 98.93 451.85 98.93 384.04 254.93 388.3 254.93 443.33"/><path class="cls-13" d="M368.94,385.79a18.73,18.73,0,0,1-11.88,17.42l-15.39,6.05-86.74,34.07v-55l91.13-20.75a18.73,18.73,0,0,1,22.88,18.24Z"/><path class="cls-13" d="M98.93,384v67.8H91.12a257,257,0,0,1-54.91-64.53c-.66-1.08-1.3-2.17-1.93-3.27Z"/><path class="cls-13" d="M156.27,385.61v1.7H36.21c-.66-1.08-1.3-2.17-1.93-3.27a254,254,0,0,1-24-55.85H98.8a57.55,57.55,0,0,1,24.58,5.51c.79.38,1.59.76,2.36,1.19h0A57.14,57.14,0,0,1,142,347.8h0a57.5,57.5,0,0,1,11.16,19.26h0a57.42,57.42,0,0,1,3.06,17.63C156.27,385,156.27,385.31,156.27,385.61Z"/><polygon class="cls-13" points="159.26 333.47 115.27 370.08 47.27 328.19 123.38 299.49 159.26 333.47"/><path class="cls-13" d="M187.53,337.77l-64.15-3V299.49L187,295c12-.84,22.24,8.07,22.24,19.36v4C209.26,329.48,199.36,338.33,187.53,337.77Z"/><path class="cls-14" d="M180.6,301.66h15a7.87,7.87,0,0,1,7.87,7.87v13.62a7.87,7.87,0,0,1-7.87,7.87h-15A10.55,10.55,0,0,1,170,320.47v-8.25A10.55,10.55,0,0,1,180.6,301.66Z"/><path class="cls-14" d="M367,394.06a18.7,18.7,0,0,1-9.95,9.15l-15.39,6.05-.94-3.11a9.15,9.15,0,0,1,6.12-11.42l13.32-4A5.6,5.6,0,0,1,367,394.06Z"/><ellipse class="cls-15" cx="238.6" cy="405.2" rx="6.33" ry="22.24"/><ellipse class="cls-15" cx="238.6" cy="405.2" rx="22.24" ry="6.33"/><ellipse class="cls-15" cx="103.26" cy="338.5" rx="6.33" ry="22.24"/><ellipse class="cls-15" cx="103.26" cy="338.5" rx="22.24" ry="6.33"/></g></svg>