<svg xmlns="http://www.w3.org/2000/svg" viewBox="0 0 512 512"><defs><style>.cls-1{fill:#4aa2ce;}.cls-2{fill:#ab5493;}.cls-3{fill:#c25c9e;}.cls-4{fill:#d8b6ab;}.cls-5{fill:#efc9ba;}.cls-6{fill:#c59f95;}.cls-7{fill:#a7d4ad;}.cls-8{fill:#b2e6b9;}.cls-9{fill:#eef1f4;}.cls-10{fill:#dcdee1;}.cls-11{fill:#5f9167;}.cls-12{fill:#95cf93;}.cls-13{fill:none;stroke:#c59f95;stroke-linecap:round;stroke-miterlimit:10;stroke-width:8px;}</style></defs><title>Beauty</title><g id="BULINE"><path class="cls-1" d="M512,256A255.84,255.84,0,0,1,386.86,476.06a249.93,249.93,0,0,1-24.82,13,256.87,256.87,0,0,1-176.35,13.15q-5.7-1.6-11.27-3.5c-2.21-.73-4.41-1.51-6.59-2.31a251.53,251.53,0,0,1-23.33-9.91q-2.9-1.39-5.75-2.87a256.51,256.51,0,0,1-76.42-60.21A256,256,0,0,1,46,109.56c.46-.66.92-1.32,1.39-2A257.47,257.47,0,0,1,98,54.6q6.36-5,13-9.6A254.82,254.82,0,0,1,256,0C397.38,0,512,114.62,512,256Z"/></g><g id="Icons"><rect class="cls-2" x="68.19" y="124.11" width="392" height="237.82" rx="41.01"/><rect class="cls-3" x="111.36" y="124.11" width="348.83" height="237.82" rx="41.01"/><path class="cls-4" d="M384.92,469.64q1.05,3.17,1.94,6.42a249.93,249.93,0,0,1-24.82,13,256.87,256.87,0,0,1-176.35,13.15q-5.7-1.6-11.27-3.5c-2.21-.73-4.41-1.51-6.59-2.31a251.53,251.53,0,0,1-23.33-9.91c6.71-34.14,25-61.9,48.75-75.2a64.85,64.85,0,0,1,31.79-8.5H308.8c.72,0,1.43,0,2.14,0s1.31.05,2,.1l.31,0c.66,0,1.32.1,2,.17s1.27.14,1.89.22l.37.05,1.64.25.66.12c.49.08,1,.17,1.45.27l.36.07,1.56.35.69.17c.58.14,1.16.29,1.73.45s1.21.34,1.81.53l.34.1c.58.18,1.15.37,1.73.57s1.46.52,2.18.79l1.88.76.11.05c.52.21,1,.44,1.54.67l.45.2c1.25.57,2.47,1.18,3.69,1.83.54.29,1.08.58,1.62.89l.55.31,1.56.93,1.68,1.05.15.1L346.6,415l.09.07c.58.4,1.15.81,1.73,1.23s1.17.87,1.75,1.32l.06,0L351.9,419c.49.4,1,.81,1.46,1.23l.45.39c.39.33.78.67,1.16,1,1.27,1.14,2.52,2.33,3.73,3.57q.6.6,1.17,1.2c.63.67,1.26,1.34,1.88,2s1,1.1,1.46,1.67l1.07,1.27,1,1.21c.38.47.76.95,1.13,1.44s.75,1,1.11,1.46q1.1,1.47,2.16,3l0,.05,1,1.52c.69,1,1.37,2.1,2,3.18.3.47.59,1,.88,1.44.06.1.12.19.17.29.31.51.61,1,.9,1.54,1,1.67,1.87,3.37,2.76,5.11l.87,1.73v0c.29.59.57,1.17.85,1.77s.55,1.19.82,1.79c.52,1.15,1,2.31,1.51,3.48a3,3,0,0,1,.15.38c.17.41.34.82.5,1.23.31.76.61,1.53.89,2.3.48,1.26.94,2.54,1.38,3.82C384.59,468.67,384.76,469.15,384.92,469.64Z"/><path class="cls-5" d="M384.92,469.64q1.05,3.17,1.94,6.42a249.93,249.93,0,0,1-24.82,13,256.87,256.87,0,0,1-176.35,13.15q-5.7-1.6-11.27-3.5a139.14,139.14,0,0,1,10.68-40.58c9.16-20.91,23.18-37.46,39.94-46.84a69.85,69.85,0,0,1,6.5-3.2l.49-.2a63.88,63.88,0,0,1,15.23-4.36l.64-.1a63,63,0,0,1,8.93-.64h52c.72,0,1.43,0,2.14,0s1.31.05,2,.1l.31,0c.66,0,1.32.1,2,.17s1.27.14,1.89.22l.37.05,1.64.25.66.12c.49.08,1,.17,1.45.27l.36.07,1.56.35.69.17c.58.14,1.16.29,1.73.45s1.21.34,1.81.53l.34.1c.58.18,1.15.37,1.73.57s1.46.52,2.18.79l1.88.76.11.05c.52.21,1,.44,1.54.67l.45.2c1.25.57,2.47,1.18,3.69,1.83.54.29,1.08.58,1.62.89l.55.31,1.56.93,1.68,1.05.15.1L346.6,415l.09.07c.58.4,1.15.81,1.73,1.23s1.17.87,1.75,1.32l.06,0L351.9,419c.49.4,1,.81,1.46,1.23l.45.39c.39.33.78.67,1.16,1,1.27,1.14,2.52,2.33,3.73,3.57q.6.6,1.17,1.2c.63.67,1.26,1.34,1.88,2s1,1.1,1.46,1.67l1.07,1.27,1,1.21c.38.47.76.95,1.13,1.44s.75,1,1.11,1.46c.74,1,1.45,2,2.16,3l0,.05,1,1.52c.69,1,1.37,2.1,2,3.18.3.47.59,1,.88,1.44.06.1.12.19.17.29.31.51.61,1,.9,1.54,1,1.66,1.88,3.37,2.76,5.11l.87,1.73v0c.29.59.57,1.17.85,1.77s.55,1.19.82,1.79c.52,1.15,1,2.31,1.51,3.48a3,3,0,0,1,.15.38c.17.41.34.82.5,1.23.31.76.61,1.53.89,2.3.48,1.26.94,2.53,1.38,3.82C384.59,468.67,384.76,469.15,384.92,469.64Z"/><rect class="cls-4" x="232.03" y="344.68" width="65.82" height="81.17" rx="15.49"/><rect class="cls-5" x="247.26" y="344.68" width="50.59" height="81.17"/><circle class="cls-5" cx="387.75" cy="249.45" r="25.71"/><circle class="cls-4" cx="387.75" cy="249.45" r="11.11"/><circle class="cls-4" cx="142.13" cy="249.45" r="25.71"/><circle class="cls-6" cx="142.13" cy="249.45" r="11.11"/><path class="cls-7" d="M387.75,189.47v60.69a122.81,122.81,0,0,1-245.62,0V189.47A87.81,87.81,0,0,1,230,101.64h70A87.81,87.81,0,0,1,387.75,189.47Z"/><path class="cls-8" d="M387.75,189.47v60.69a122.79,122.79,0,0,1-108.53,122,122.79,122.79,0,0,1-108.53-122V189.47a87.81,87.81,0,0,1,87.82-87.83h41.42A87.81,87.81,0,0,1,387.75,189.47Z"/><rect class="cls-6" x="254.93" y="260.95" width="27.61" height="13.09" rx="6.55"/><path class="cls-9" d="M387.74,223.3c-21.64-36.36-49.74-68.59-86.95-95h0A325.86,325.86,0,0,0,264.44,106l-.53-.28.55-.58L301,66.68a51.4,51.4,0,0,1,72.67-1.88l10.26,9.75A105.22,105.22,0,0,1,387.74,223.3Z"/><path class="cls-10" d="M300.79,128.3h0A325.86,325.86,0,0,0,264.44,106l0-.86L301,66.68a51.2,51.2,0,0,1,25.93-14.74C338.82,68.76,350.2,100.11,300.79,128.3Z"/><path class="cls-10" d="M310,97.52a45,45,0,0,1-8.76,8.6c-19.58,7.58-39.11,18.27-58.58,31.45-28.56,19.3-57,43.94-85.41,71.87Q150,216.57,142.75,224l-10.64-14.31A103.17,103.17,0,0,1,153.33,65.31L223.62,13a52.67,52.67,0,0,1,5.59-3.62,51.5,51.5,0,0,1,66.45,14.22l14.77,19.85A44.78,44.78,0,0,1,310,97.52Z"/><path class="cls-9" d="M310,97.52c-22.51,9.65-45,23.32-67.34,40.05-28.56,19.3-57,43.94-85.41,71.87l-8.59-11.55A103.17,103.17,0,0,1,169.86,53.54L229.21,9.41a51.5,51.5,0,0,1,66.45,14.22l14.77,19.85A44.78,44.78,0,0,1,310,97.52Z"/><path class="cls-10" d="M362,471v18.07a256.87,256.87,0,0,1-176.35,13.15q-5.7-1.6-11.27-3.5c-2.21-.73-4.41-1.51-6.59-2.31V471a12.86,12.86,0,0,1,12.86-12.86H349.18A12.86,12.86,0,0,1,362,471Z"/><path class="cls-9" d="M362,471v18.07a256.87,256.87,0,0,1-176.35,13.15V471a12.87,12.87,0,0,1,12.87-12.86H349.18A12.86,12.86,0,0,1,362,471Z"/><circle class="cls-11" cx="212.44" cy="229.4" r="35.67"/><circle class="cls-12" cx="212.44" cy="229.4" r="30.34"/><circle class="cls-8" cx="212.44" cy="229.4" r="9.49"/><path class="cls-8" d="M208,214.26a4.4,4.4,0,0,0,8.79,0c0-2.43-4.39-4.4-4.39-4.4S208,211.83,208,214.26Z"/><path class="cls-8" d="M220.3,215.05a4.39,4.39,0,1,0,6.2,6.22c1.72-1.71,0-6.21,0-6.21S222,213.33,220.3,215.05Z"/><path class="cls-8" d="M225.9,224.63a4.39,4.39,0,1,0,3.79,7.92c2.19-1,2.06-5.86,2.06-5.86S228.08,223.58,225.9,224.63Z"/><path class="cls-8" d="M225.75,239a4.39,4.39,0,0,0-7.3,4.88c1.35,2,6.09,1.21,6.09,1.21S227.1,241,225.75,239Z"/><path class="cls-8" d="M210.92,245.44a4.39,4.39,0,1,0-7.66-4.31c-1.19,2.12,1.68,6,1.68,6S209.73,247.55,210.92,245.44Z"/><path class="cls-8" d="M200.13,237.22A4.39,4.39,0,0,0,197,229c-2.27.87-2.53,5.67-2.53,5.67S197.87,238.09,200.13,237.22Z"/><path class="cls-8" d="M198,223.56a4.39,4.39,0,1,0,5.66-6.72c-1.85-1.56-6.19.53-6.19.53S196.16,222,198,223.56Z"/><circle class="cls-11" cx="320.89" cy="229.4" r="35.67"/><circle class="cls-12" cx="320.89" cy="229.4" r="30.34"/><circle class="cls-8" cx="320.89" cy="229.4" r="9.49"/><path class="cls-8" d="M316.5,214.26a4.39,4.39,0,1,0,8.78,0c0-2.43-4.39-4.4-4.39-4.4S316.5,211.83,316.5,214.26Z"/><path class="cls-8" d="M328.75,215.05a4.39,4.39,0,1,0,6.2,6.22c1.72-1.71,0-6.21,0-6.21S330.47,213.33,328.75,215.05Z"/><path class="cls-8" d="M334.35,224.63a4.39,4.39,0,1,0,3.79,7.92c2.19-1,2.07-5.86,2.07-5.86S336.54,223.58,334.35,224.63Z"/><path class="cls-8" d="M334.21,239a4.39,4.39,0,0,0-7.31,4.88c1.35,2,6.1,1.21,6.1,1.21S335.55,241,334.21,239Z"/><path class="cls-8" d="M319.37,245.44a4.39,4.39,0,1,0-7.66-4.31c-1.19,2.12,1.68,6,1.68,6S318.18,247.55,319.37,245.44Z"/><path class="cls-8" d="M308.58,237.22a4.39,4.39,0,1,0-3.15-8.2c-2.26.87-2.52,5.67-2.52,5.67S306.32,238.09,308.58,237.22Z"/><path class="cls-8" d="M306.47,223.56a4.39,4.39,0,1,0,5.66-6.72c-1.85-1.56-6.19.53-6.19.53S304.62,222,306.47,223.56Z"/><path class="cls-13" d="M244.66,308.33a25.79,25.79,0,0,0,48.15,0"/></g></svg>