<svg xmlns="http://www.w3.org/2000/svg" viewBox="0 0 512 512"><defs><style>.cls-1{fill:#e1c67b;}.cls-2{fill:#729daf;}.cls-3{fill:#7fadc8;}.cls-4{fill:#dab8ad;}.cls-5{fill:#f1cbbc;}.cls-6{fill:#c7a197;}.cls-7{fill:#1e2445;}.cls-8{fill:#fff;}.cls-9{fill:#5a4844;}.cls-10{fill:#6a554f;}.cls-11{fill:#b13874;}.cls-12{fill:#d0a69b;}.cls-13{fill:#c4522b;}.cls-14{fill:#ba3c19;}.cls-15{fill:#d5bbd2;}.cls-16{fill:#d9d8d7;}.cls-17{fill:#82397e;}.cls-18{fill:#f6f6f6;}.cls-19{fill:#6c2e67;}.cls-20{fill:#90387f;}.cls-21{fill:#7a3271;}</style></defs><title>Beauty</title><g id="BULINE"><path class="cls-1" d="M512,256c0,112.72-72.86,208.43-174,242.6a256.52,256.52,0,0,1-227.36-31.88q-7.41-5.13-14.43-10.75A255.5,255.5,0,0,1,0,256C0,114.62,114.62,0,256,0S512,114.62,512,256Z"/></g><g id="Icons"><path class="cls-2" d="M338,498.6a256.52,256.52,0,0,1-227.36-31.88q-7.41-5.13-14.43-10.75,1.41-1.87,2.91-3.67c.87-1,1.76-2,2.67-3a86.17,86.17,0,0,1,63.5-27.82h86.82A86.38,86.38,0,0,1,338,498.6Z"/><path class="cls-3" d="M338,498.6a256.52,256.52,0,0,1-227.36-31.88,86.31,86.31,0,0,1,76-45.25h65.48A86.38,86.38,0,0,1,338,498.6Z"/><rect class="cls-4" x="171.99" y="353.72" width="73.32" height="90.42" rx="17.26"/><path class="cls-5" d="M245.31,353.72V433a11.15,11.15,0,0,1-11.15,11.16H189V353.72Z"/><path class="cls-5" d="M377.9,255.73a29.51,29.51,0,0,1-29.51,29.51c-1,0-1.94-.05-2.9-.14a29.51,29.51,0,0,1-1.28-58.58,29.27,29.27,0,0,1,8.36,0h0A29.51,29.51,0,0,1,377.9,255.73Z"/><circle class="cls-4" cx="348.39" cy="255.73" r="12.76"/><path class="cls-4" d="M95.9,255.73A29.51,29.51,0,0,1,69.28,285.1c-1,.09-1.92.14-2.89.14a29.51,29.51,0,0,1-4.18-58.72,29.27,29.27,0,0,1,8.36,0A29.5,29.5,0,0,1,95.9,255.73Z"/><circle class="cls-6" cx="66.4" cy="255.73" r="12.76"/><path class="cls-4" d="M348.39,186.87v69.68q0,6-.51,11.92a136.17,136.17,0,0,1-2.39,16.63,141.06,141.06,0,0,1-121.7,111.5,143.3,143.3,0,0,1-16.4.95A140.75,140.75,0,0,1,66.89,268.47q-.49-5.89-.5-11.92V186.87A100.83,100.83,0,0,1,167.22,86h80.34A100.82,100.82,0,0,1,348.39,186.87Z"/><path class="cls-5" d="M348.39,186.87v69.68q0,6-.51,11.92a136.17,136.17,0,0,1-2.39,16.63,141.06,141.06,0,0,1-121.7,111.5,141,141,0,0,1-124.61-140V186.87A100.83,100.83,0,0,1,200,86h47.55A100.82,100.82,0,0,1,348.39,186.87Z"/><rect class="cls-7" x="135.56" y="228.3" width="31.7" height="49.19" rx="15.85"/><circle class="cls-8" cx="156.87" cy="246.88" r="8.2"/><path class="cls-7" d="M138.19,242.78h-.13c-.52,0-12.87-.81-17.86-11.83a2.46,2.46,0,0,1,4.49-2c3.76,8.33,13.53,8.94,13.63,8.94a2.46,2.46,0,0,1-.13,4.92Z"/><path class="cls-7" d="M145.4,236a2.5,2.5,0,0,1-.47,0c-.35-.06-8.57-1.75-11.71-11.5a2.46,2.46,0,1,1,4.68-1.5c2.26,7,7.91,8.16,8,8.17a2.46,2.46,0,0,1-.46,4.88Z"/><rect class="cls-7" x="255.71" y="228.3" width="31.7" height="49.19" rx="15.85" transform="translate(543.11 505.78) rotate(-180)"/><circle class="cls-8" cx="275.94" cy="246.88" r="8.2"/><path class="cls-7" d="M284.78,242.78h.13c.52,0,12.87-.81,17.85-11.83a2.46,2.46,0,0,0-4.48-2c-3.77,8.33-13.54,8.94-13.63,8.94a2.46,2.46,0,0,0,.13,4.92Z"/><path class="cls-7" d="M277.57,236a2.4,2.4,0,0,0,.46,0c.35-.06,8.57-1.75,11.72-11.5a2.46,2.46,0,0,0-4.69-1.5c-2.25,7-7.9,8.16-8,8.17a2.46,2.46,0,0,0,.47,4.88Z"/><rect class="cls-6" x="192.8" y="277.48" width="31.7" height="15.03" rx="7.51"/><path class="cls-9" d="M235.87,317.82V327a27.41,27.41,0,0,1-54.82,0v-9.13Z"/><path class="cls-10" d="M235.87,317.82V327A27.42,27.42,0,0,1,215,353.58,27.42,27.42,0,0,1,194,327v-9.13Z"/><path class="cls-11" d="M230,343.91a27.39,27.39,0,0,1-43.05,0,30.65,30.65,0,0,1,10-4.64,44.28,44.28,0,0,1,11.52-1.49C217.15,337.78,224.92,340.18,230,343.91Z"/><path class="cls-12" d="M208.46,317.82H181.05l13-8.14a9.34,9.34,0,0,1,13.54,4,10.53,10.53,0,0,1,.82,4.1Z"/><path class="cls-12" d="M208.26,317.82h27.42l-13.06-8.14a9.32,9.32,0,0,0-13.53,4,10.36,10.36,0,0,0-.83,4.1Z"/><path class="cls-13" d="M348.39,186.87v39.35c-85.48,0-126.42-98.86-126.42-98.86L92.25,220,66.39,252.89v-66A100.83,100.83,0,0,1,167.22,86h80.34A100.82,100.82,0,0,1,348.39,186.87Z"/><path class="cls-13" d="M205.44,115,161,126.76,141.14,70.3a26,26,0,0,1,17.91-33.82l3.43-.91a26.05,26.05,0,0,1,32.3,20.53Z"/><path class="cls-13" d="M173.54,148.26,129.11,160l-19.87-56.45a26,26,0,0,1,17.9-33.83l3.44-.91a26.05,26.05,0,0,1,32.3,20.54Z"/><path class="cls-13" d="M252.31,131.69l-38.53-25.06L242.32,54a26,26,0,0,1,37.09-9.41l3,1.94a26,26,0,0,1,6.44,37.73Z"/><path class="cls-13" d="M277,165,238.42,140,267,87.34a26,26,0,0,1,37.09-9.42l3,1.94a26.05,26.05,0,0,1,6.44,37.73Z"/><path class="cls-13" d="M233.16,100.16,181.07,87.39l8.82-59.27C192.13,13.07,208.79,3.8,226,8l4,1c17.23,4.23,27.71,20.14,22.73,34.53Z"/><path class="cls-14" d="M234.71,122.86s-6.17,75.48-100.48,86c-34.37,3.83-59.82,34.7-60.09,69.28-.13,17.11,4.25,36.77,17,58a131.84,131.84,0,0,1,18.23,51.15c2.53,19.82,1.7,44.45-10.23,67.3,0,0-1.5-64.53-44.19-103.46a78.92,78.92,0,0,1-15.92-20.2c-15.43-28-37.75-90.72,32.19-141.73a65.66,65.66,0,0,1,5.91-3.84c17.7-10.23,115.62,1,131.47-101.67C208.65,83.69,234.71,91.52,234.71,122.86Z"/><circle class="cls-15" cx="282.32" cy="319.96" r="12.76"/><circle class="cls-15" cx="275.94" cy="340.39" r="12.76"/><circle class="cls-15" cx="307.47" cy="310.14" r="19.86"/><circle class="cls-15" cx="446.66" cy="280.1" r="26.39"/><circle class="cls-15" cx="387.54" cy="169.47" r="26.39"/><circle class="cls-15" cx="428.18" cy="372.87" r="31.39"/><circle class="cls-15" cx="374.78" cy="317.84" r="13.63"/><circle class="cls-15" cx="396.79" cy="235.13" r="13.63"/><circle class="cls-15" cx="285.51" cy="404.82" r="13.87"/><circle class="cls-15" cx="280.66" cy="467.71" r="26.54"/><path class="cls-16" d="M287.65,319.59h0A3.4,3.4,0,0,1,291,323v38.2a0,0,0,0,1,0,0h-6.8a0,0,0,0,1,0,0V323A3.4,3.4,0,0,1,287.65,319.59Z" transform="translate(-153.36 404.6) rotate(-58.08)"/><path class="cls-16" d="M277.93,344.56h0a3.4,3.4,0,0,1,3.4,3.4v10.28a1,1,0,0,1-1,1h-4.78a1,1,0,0,1-1-1V348a3.4,3.4,0,0,1,3.4-3.4Z" transform="translate(-39.21 668.93) rotate(-96.69)"/><path class="cls-16" d="M299.93,369.68h.77a3,3,0,0,1,3,3v7.53a.89.89,0,0,1-.89.89h-5a.89.89,0,0,1-.89-.89v-7.53A3,3,0,0,1,299.93,369.68Z" transform="translate(283.25 855.84) rotate(-139.31)"/><path class="cls-17" d="M364.82,377.2l34.47,53.58a15.77,15.77,0,0,1-4.74,21.79l-15.09,9.71a15.77,15.77,0,0,1-21.79-4.74L323.21,404Z"/><path class="cls-18" d="M334.93,322.48h0a3.4,3.4,0,0,1,3.4,3.4v38.2a0,0,0,0,1,0,0h-6.8a0,0,0,0,1,0,0v-38.2A3.4,3.4,0,0,1,334.93,322.48Z" transform="translate(379.77 -134.22) rotate(49.66)"/><path class="cls-16" d="M341.46,319.5l14.33,43.65-41.61,26.77-34.34-31.68a22.63,22.63,0,0,1-3.28-29.62,56.71,56.71,0,0,1,20.15-17.86,66.69,66.69,0,0,1,18.74-6.45A22.76,22.76,0,0,1,341.46,319.5Z"/><path class="cls-18" d="M341.46,319.5l14.33,43.65-33.45,21.52L288,353a22.63,22.63,0,0,1-3.27-29.62,57.83,57.83,0,0,1,12-12.61,66.69,66.69,0,0,1,18.74-6.45A22.76,22.76,0,0,1,341.46,319.5Z"/><path class="cls-16" d="M341.27,333.3h0a3.4,3.4,0,0,1,3.4,3.4v38.2a0,0,0,0,1,0,0h-6.8a0,0,0,0,1,0,0V336.7A3.4,3.4,0,0,1,341.27,333.3Z" transform="translate(-101.5 140.08) rotate(-20.26)"/><path class="cls-18" d="M320.15,300.19h0a3.4,3.4,0,0,1,3.4,3.4v38.2a0,0,0,0,1,0,0h-6.8a0,0,0,0,1,0,0v-38.2A3.4,3.4,0,0,1,320.15,300.19Z" transform="translate(-91.34 130.71) rotate(-20.26)"/><path class="cls-18" d="M306.8,303.26h0a3.4,3.4,0,0,1,3.4,3.4v38.2a0,0,0,0,1,0,0h-6.8a0,0,0,0,1,0,0v-38.2A3.4,3.4,0,0,1,306.8,303.26Z" transform="translate(-131.18 238.52) rotate(-35.52)"/><path class="cls-18" d="M329,302.62h0a3.4,3.4,0,0,1,3.4,3.4v38.2a0,0,0,0,1,0,0h-6.8a0,0,0,0,1,0,0V306A3.4,3.4,0,0,1,329,302.62Z" transform="translate(108.21 -81.65) rotate(16.9)"/><path class="cls-16" d="M314.16,350.8h0a3.4,3.4,0,0,1,3.4,3.4v38.2a0,0,0,0,1,0,0h-6.8a0,0,0,0,1,0,0V354.2a3.4,3.4,0,0,1,3.4-3.4Z" transform="translate(-168.82 312.31) rotate(-42.79)"/><path class="cls-16" d="M326.95,342.58h0a3.4,3.4,0,0,1,3.4,3.4v38.2a0,0,0,0,1,0,0h-6.8a0,0,0,0,1,0,0V346A3.4,3.4,0,0,1,326.95,342.58Z" transform="translate(-145.21 236.87) rotate(-33.02)"/><rect class="cls-19" x="314.77" y="375.21" width="49.47" height="16.7" transform="translate(-153.52 244.61) rotate(-32.75)"/><path class="cls-20" d="M364.82,377.2l34.47,53.58a15.77,15.77,0,0,1-4.74,21.79l-7.45,4.8a15.76,15.76,0,0,1-21.79-4.74l-34.47-53.58Z"/><rect class="cls-21" x="323.12" y="372.75" width="40.4" height="16.7" transform="translate(-151.59 246.28) rotate(-32.75)"/><rect class="cls-16" x="311.39" y="313.46" width="8.23" height="6.28" rx="3.14" transform="translate(-121.12 220.99) rotate(-32.75)"/><rect class="cls-16" x="287.94" y="333.58" width="8.23" height="6.28" rx="3.14" transform="translate(-135.73 211.5) rotate(-32.75)"/><rect class="cls-16" x="318.11" y="329.17" width="8.23" height="6.28" rx="3.14" transform="translate(-128.55 227.12) rotate(-32.75)"/><rect class="cls-16" x="287.94" y="318.37" width="8.23" height="6.28" rx="3.14" transform="translate(-127.5 209.08) rotate(-32.75)"/><circle class="cls-19" cx="361.46" cy="416.9" r="13.87"/><ellipse class="cls-8" cx="393.27" cy="283.54" rx="4.38" ry="15.37"/><ellipse class="cls-8" cx="393.27" cy="283.54" rx="15.37" ry="4.38"/><ellipse class="cls-8" cx="328.53" cy="169.47" rx="4.38" ry="15.37"/><ellipse class="cls-8" cx="328.53" cy="169.47" rx="15.37" ry="4.38"/><ellipse class="cls-8" cx="377.9" cy="353.15" rx="4.38" ry="15.37"/><ellipse class="cls-8" cx="377.9" cy="353.15" rx="15.37" ry="4.38"/></g></svg>