<svg xmlns="http://www.w3.org/2000/svg" viewBox="0 0 512 512"><defs><style>.cls-1{fill:#5c66c7;}.cls-2{fill:#7c87d8;}.cls-3{fill:#b2582b;}.cls-4{fill:#c6632d;}.cls-5{fill:#80af7d;}.cls-6{fill:#95cf93;}.cls-7{fill:#dab8ad;}.cls-8{fill:#f1cbbc;}.cls-9{fill:#c7a197;}.cls-10{fill:#1e2445;}.cls-11{fill:#fff;}.cls-12{fill:#dbdbdb;}.cls-13{fill:#893065;}.cls-14{fill:#a13672;}</style></defs><title>Beauty</title><g id="BULINE"><path class="cls-1" d="M512,256A255.93,255.93,0,0,1,82.72,444.44q-2.72-2.51-5.37-5.08A255.27,255.27,0,0,1,0,256C0,114.62,114.62,0,256,0A255.65,255.65,0,0,1,462.14,104.18h0A254.85,254.85,0,0,1,512,256Z"/></g><g id="Icons"><circle class="cls-2" cx="109.52" cy="359.28" r="40.39"/><circle class="cls-2" cx="103.04" cy="172.41" r="53.78"/><circle class="cls-2" cx="453.05" cy="311.42" r="40.39"/><path class="cls-3" d="M453.05,166.35V288.48A142.38,142.38,0,0,1,310.51,431h-5.93A142.53,142.53,0,0,1,162,288.48V166.35Z"/><path class="cls-4" d="M453.05,166.35V288.48a142.58,142.58,0,0,1-92.24,133.41,142.6,142.6,0,0,1-92.24-133.41V166.35Z"/><ellipse class="cls-4" cx="348.3" cy="137.19" rx="119.16" ry="111.45"/><ellipse class="cls-3" cx="250.98" cy="196.31" rx="119.16" ry="111.45"/><ellipse class="cls-4" cx="270.03" cy="197.28" rx="119.16" ry="111.45"/><path class="cls-5" d="M427.51,446.06a256.5,256.5,0,0,1-236.36,57.65V470.88a78.27,78.27,0,0,1,.61-9.86,79.92,79.92,0,0,1,79.36-70.1h80.36a80,80,0,0,1,76,55.14Z"/><path class="cls-6" d="M427.51,446.06A256.42,256.42,0,0,1,227,510.37q-5-2.28-9.94-4.76V470.88a78.27,78.27,0,0,1,.61-9.86,79.88,79.88,0,0,1,75.42-70c1.31-.07,2.62-.1,3.94-.1h54.47a80,80,0,0,1,76,55.14Z"/><path class="cls-3" d="M429.28,107.57c-22,29-28.25,56.08-2.58,79.33a45,45,0,0,0,5.92,4.3c37.4,23.77,36.18,48.23,2,73.3a49.12,49.12,0,0,0-9.8,9.13c-19.51,25.22-20.13,50,.39,74.29a46,46,0,0,0,7.6,7c28.1,21,20.75,45.68-3.55,72.08,29.43-25.14,46.48-49.07,38.49-70.56a18,18,0,0,0-4.69-6.67c-28.8-27.25-28-54.43,2.88-81.53,34.83-23.85,33.64-50.31,0-79.12C427.73,164.25,419.46,136.71,429.28,107.57Z"/><path class="cls-3" d="M364.36,118.63c-22,29-28.25,56.08-2.58,79.34a45.37,45.37,0,0,0,5.93,4.3c37.4,23.76,36.17,48.23,2,73.3a48.49,48.49,0,0,0-9.79,9.13c-19.52,25.22-20.14,50,.38,74.29a46,46,0,0,0,7.6,7c28.1,21,20.75,45.68-3.55,72.08C393.8,413,410.84,389,402.85,367.52a18,18,0,0,0-4.69-6.66c-28.8-27.25-28-54.43,2.88-81.54,34.84-23.84,33.64-50.3,0-79.11C362.81,175.32,354.55,147.77,364.36,118.63Z"/><path class="cls-3" d="M408,168.48c-22,29-28.26,56.08-2.59,79.33a43.59,43.59,0,0,0,5.93,4.3c37.4,23.77,36.17,48.24,2,73.3a49.41,49.41,0,0,0-9.8,9.13c-19.52,25.22-20.14,50,.38,74.3a46,46,0,0,0,7.6,7c28.1,21,20.75,45.68-3.54,72.09,29.43-25.15,46.47-49.08,38.48-70.57a18.08,18.08,0,0,0-4.68-6.67c-28.8-27.25-28-54.43,2.88-81.53,34.83-23.85,33.63-50.31,0-79.12C406.46,225.16,398.19,197.62,408,168.48Z"/><path class="cls-3" d="M203.75,325.1c-12.52,16.5-16.08,31.91-1.47,45.15a26.56,26.56,0,0,0,3.38,2.45c21.28,13.52,20.58,27.44,1.15,41.71a27.63,27.63,0,0,0-5.58,5.2c-11.11,14.35-11.46,28.45.22,42.28a26.69,26.69,0,0,0,4.32,4c16,12,11.81,26-2,41,16.75-14.31,26.46-27.93,21.91-40.16A10.36,10.36,0,0,0,223,463c-16.39-15.51-15.94-31,1.64-46.4,19.82-13.57,19.14-28.63,0-45C202.87,357.36,198.17,341.68,203.75,325.1Z"/><path class="cls-4" d="M220.3,151c-26,23.39-36.8,47.83-16.77,74.43a42.82,42.82,0,0,0,4.82,5.13c31,29.19,25.42,52.06-11.34,69.55a47.42,47.42,0,0,0-10.91,6.85c-23,20.28-28,43.56-13.06,70.2a43.68,43.68,0,0,0,5.91,8c22.72,24.92,11.33,46.87-16.38,67.4,32.33-18.41,52.75-37.93,49.09-59.66a17.39,17.39,0,0,0-3.22-7.13c-22.27-30.93-16.6-56.45,17.45-76.45,37.19-16.22,40.84-41.41,14.3-74.68C208.6,204.18,205.77,176.69,220.3,151Z"/><path class="cls-3" d="M253.3,285.1c-12.53,16.5-16.08,31.91-1.47,45.15a25.73,25.73,0,0,0,3.37,2.45c21.28,13.52,20.58,27.44,1.15,41.71a27.63,27.63,0,0,0-5.58,5.2c-11.1,14.35-11.46,28.45.22,42.28a26.36,26.36,0,0,0,4.33,4c16,12,11.8,26-2,41,16.75-14.31,26.45-27.93,21.9-40.16a10.36,10.36,0,0,0-2.67-3.79c-16.39-15.51-15.93-31,1.64-46.4,19.82-13.57,19.14-28.63,0-45C252.41,317.36,247.71,301.68,253.3,285.1Z"/><rect class="cls-7" x="277.36" y="328.21" width="67.87" height="83.7" rx="15.97"/><path class="cls-8" d="M345.23,328.21v73.36A10.32,10.32,0,0,1,334.9,411.9H293.07V328.21Z"/><circle class="cls-8" cx="441.29" cy="225.52" r="27.21"/><circle class="cls-7" cx="441.29" cy="225.52" r="11.76"/><circle class="cls-7" cx="181.31" cy="225.52" r="27.21"/><circle class="cls-9" cx="181.31" cy="225.52" r="11.76"/><path class="cls-7" d="M441.29,162v64.24A130,130,0,0,1,326.41,355.39a132.41,132.41,0,0,1-15.11.87,130,130,0,0,1-130-130V162a93,93,0,0,1,92.95-93h74.07A93,93,0,0,1,441.29,162Z"/><path class="cls-8" d="M441.29,162v64.24A130,130,0,0,1,326.41,355.39,130,130,0,0,1,211.54,226.28V162a93,93,0,0,1,93-93h43.84A93,93,0,0,1,441.29,162Z"/><rect class="cls-10" x="245.89" y="197.55" width="29.22" height="45.35" rx="14.61"/><circle class="cls-11" cx="265.54" cy="214.68" r="7.56"/><path class="cls-10" d="M248.32,210.9h-.12c-.49,0-11.87-.74-16.47-10.9a2.27,2.27,0,0,1,4.14-1.87c3.47,7.67,12.47,8.24,12.56,8.24a2.27,2.27,0,0,1-.11,4.53Z"/><path class="cls-10" d="M255,204.61a2.18,2.18,0,0,1-.43-.05c-.32-.06-7.9-1.61-10.8-10.59a2.27,2.27,0,0,1,4.32-1.4c2.08,6.46,7.29,7.53,7.34,7.54a2.27,2.27,0,0,1-.43,4.5Z"/><rect class="cls-10" x="356.66" y="197.55" width="29.22" height="45.35" rx="14.61" transform="translate(742.54 440.45) rotate(180)"/><circle class="cls-11" cx="375.31" cy="214.68" r="7.56"/><path class="cls-10" d="M383.46,210.9h.12c.48,0,11.86-.74,16.46-10.9a2.27,2.27,0,0,0-4.14-1.87c-3.47,7.67-12.47,8.24-12.56,8.24a2.27,2.27,0,0,0,.12,4.53Z"/><path class="cls-10" d="M376.81,204.61a2.18,2.18,0,0,0,.43-.05c.32-.06,7.9-1.61,10.8-10.59a2.27,2.27,0,1,0-4.32-1.4c-2.08,6.46-7.28,7.53-7.34,7.54a2.27,2.27,0,0,0,.43,4.5Z"/><rect class="cls-9" x="298.66" y="242.9" width="29.22" height="13.86" rx="6.93"/><path class="cls-9" d="M289.13,295.55h48a0,0,0,0,1,0,0v0a13.58,13.58,0,0,1-13.58,13.58H302.71a13.58,13.58,0,0,1-13.58-13.58v0A0,0,0,0,1,289.13,295.55Z"/><path class="cls-9" d="M313.33,295.76c-18.94,12.76-24.14.21-31.82-8.63h0l15.16-.82a10.83,10.83,0,0,1,15.7,4.69,12.19,12.19,0,0,1,1,4.76Z"/><path class="cls-9" d="M313.22,295.76c18.94,12.76,24.14.21,31.82-8.63h0l-15.16-.82a10.83,10.83,0,0,0-15.7,4.69,12.19,12.19,0,0,0-1,4.76Z"/><path class="cls-3" d="M325.21,114.73c0,37.21-30.76,68-70.63,72.78a90.1,90.1,0,0,1-11,.66c-45.05,0-81.58-32.88-81.58-73.44s36.53-73.44,81.58-73.44a90.1,90.1,0,0,1,11,.66C294.45,46.76,325.21,77.52,325.21,114.73Z"/><path class="cls-4" d="M325.21,114.73c0,37.21-30.76,68-70.63,72.78C214.71,182.7,184,151.94,184,114.73s30.75-68,70.62-72.78C294.45,46.76,325.21,77.52,325.21,114.73Z"/><path class="cls-3" d="M218.67,185.31c0,22.41-18.52,40.93-42.53,43.83a55.17,55.17,0,0,1-6.6.4c-27.13,0-49.12-19.8-49.12-44.23s22-44.22,49.12-44.22a55.17,55.17,0,0,1,6.6.4C200.15,144.39,218.67,162.91,218.67,185.31Z"/><path class="cls-4" d="M218.67,185.31c0,22.41-18.52,40.93-42.53,43.83-24-2.9-42.52-21.42-42.52-43.83s18.51-40.92,42.52-43.82C200.15,144.39,218.67,162.91,218.67,185.31Z"/><path class="cls-3" d="M202,242.9c0,14.78-12.22,27-28.06,28.91a34.84,34.84,0,0,1-4.36.27c-17.9,0-32.41-13.07-32.41-29.18s14.51-29.18,32.41-29.18a36.86,36.86,0,0,1,4.36.26C189.74,215.89,202,228.11,202,242.9Z"/><path class="cls-4" d="M202,242.9c0,14.78-12.22,27-28.06,28.91-15.85-1.91-28.06-14.13-28.06-28.91s12.21-27,28.06-28.92C189.74,215.89,202,228.11,202,242.9Z"/><path class="cls-3" d="M204.61,287.1c0,11.68-9.65,21.34-22.17,22.85a30,30,0,0,1-3.44.21c-14.14,0-25.61-10.33-25.61-23.06s11.47-23.05,25.61-23.05a30,30,0,0,1,3.44.2C195,265.76,204.61,275.42,204.61,287.1Z"/><path class="cls-4" d="M204.61,287.1c0,11.68-9.65,21.34-22.17,22.85-12.52-1.51-22.17-11.17-22.17-22.85s9.65-21.34,22.17-22.85C195,265.76,204.61,275.42,204.61,287.1Z"/><ellipse class="cls-4" cx="356.66" cy="92.83" rx="65.43" ry="43.94"/><ellipse class="cls-4" cx="422.09" cy="140.15" rx="33.53" ry="49.93" transform="translate(-3.66 268.77) rotate(-35.18)"/><ellipse class="cls-11" cx="173.9" cy="237.28" rx="22.93" ry="6.53" transform="translate(-104.95 331.03) rotate(-72.35)"/><ellipse class="cls-11" cx="173.9" cy="237.28" rx="6.53" ry="22.93" transform="matrix(0.3, -0.95, 0.95, 0.3, -104.95, 331.03)"/><ellipse class="cls-11" cx="181" cy="136.78" rx="6.53" ry="22.93" transform="translate(-38.6 79.8) rotate(-22.53)"/><ellipse class="cls-11" cx="181" cy="136.78" rx="22.93" ry="6.53" transform="translate(-38.6 79.8) rotate(-22.53)"/><path class="cls-11" d="M183.27,155.38a28.23,28.23,0,0,1,.48-10.26,45.86,45.86,0,0,1,3.42-9.9,80.55,80.55,0,0,1,11.44-17.52,131.31,131.31,0,0,1,32-26.78,155.18,155.18,0,0,1,160.79,0,130.73,130.73,0,0,1,32,26.78,80.44,80.44,0,0,1,11.44,17.54,46.38,46.38,0,0,1,3.41,9.9,28.22,28.22,0,0,1,.47,10.26,31.9,31.9,0,0,0-3.32-9.25,50.18,50.18,0,0,0-5.32-8,90.68,90.68,0,0,0-13.61-13.46A154.67,154.67,0,0,0,384,104.77a171.55,171.55,0,0,0-146,0,154.94,154.94,0,0,0-32.5,19.9,91.16,91.16,0,0,0-13.6,13.47,50.72,50.72,0,0,0-5.32,8A32.17,32.17,0,0,0,183.27,155.38Z"/><path class="cls-12" d="M262.36,78.56A10.77,10.77,0,1,1,254,68,10.8,10.8,0,0,1,262.36,78.56Z"/><path class="cls-11" d="M262.36,78.56A10.8,10.8,0,0,1,254,89a10.78,10.78,0,0,1,0-21A10.79,10.79,0,0,1,262.36,78.56Z"/><path class="cls-12" d="M289.67,68.2A16.58,16.58,0,0,1,276,84.49a17,17,0,0,1-3,.26A16.59,16.59,0,1,1,289.67,68.2Z"/><path class="cls-11" d="M289.67,68.2A16.58,16.58,0,0,1,276,84.49a16.59,16.59,0,0,1,0-32.66A16.6,16.6,0,0,1,289.67,68.2Z"/><path class="cls-12" d="M337.66,59.55a27.14,27.14,0,0,1-24,26.92,25,25,0,0,1-3.26.19,27.18,27.18,0,1,1,.14-54.35,26.63,26.63,0,0,1,3.11.19A27.15,27.15,0,0,1,337.66,59.55Z"/><path class="cls-11" d="M337.66,59.55a27.14,27.14,0,0,1-24,26.92,27.17,27.17,0,0,1,0-54A27.15,27.15,0,0,1,337.66,59.55Z"/><path class="cls-13" d="M327.4,59.53a16.91,16.91,0,0,1-12.95,16.4,17.13,17.13,0,0,1-4,.47,16.92,16.92,0,0,1,.09-33.83,16.37,16.37,0,0,1,3.92.48A16.88,16.88,0,0,1,327.4,59.53Z"/><path class="cls-14" d="M327.4,59.53a16.91,16.91,0,0,1-12.95,16.4,16.91,16.91,0,0,1,0-32.88A16.88,16.88,0,0,1,327.4,59.53Z"/><path class="cls-12" d="M365.24,68.38A16.59,16.59,0,0,1,352,84.58a16.13,16.13,0,0,1-3.42.35,16.59,16.59,0,0,1,.08-33.18,16.35,16.35,0,0,1,3.38.35A16.59,16.59,0,0,1,365.24,68.38Z"/><path class="cls-11" d="M365.24,68.38A16.59,16.59,0,0,1,352,84.58a16.59,16.59,0,0,1,0-32.48A16.59,16.59,0,0,1,365.24,68.38Z"/><path class="cls-12" d="M381.19,75.93a10.78,10.78,0,0,1-8.78,10.55,10.3,10.3,0,0,1-2,.18,10.77,10.77,0,1,1,0-21.53,11.4,11.4,0,0,1,1.95.18A10.78,10.78,0,0,1,381.19,75.93Z"/><path class="cls-11" d="M381.19,75.93a10.78,10.78,0,0,1-8.78,10.55,10.77,10.77,0,0,1,0-21.17A10.78,10.78,0,0,1,381.19,75.93Z"/><path class="cls-4" d="M430.35,142.56c-12.52,16.5-16.08,31.91-1.47,45.15a25.73,25.73,0,0,0,3.37,2.45c21.29,13.52,20.59,27.44,1.15,41.71a27.56,27.56,0,0,0-5.57,5.2c-11.11,14.35-11.46,28.45.21,42.28a26.78,26.78,0,0,0,4.33,4c16,12,11.81,26-2,41,16.75-14.31,26.45-27.93,21.9-40.16a10.21,10.21,0,0,0-2.66-3.79c-16.39-15.51-15.94-31,1.64-46.4,19.82-13.57,19.14-28.63,0-45C429.47,174.82,424.76,159.14,430.35,142.56Z"/><ellipse class="cls-11" cx="441" cy="140.15" rx="6.53" ry="22.93"/><ellipse class="cls-11" cx="441" cy="140.15" rx="22.93" ry="6.53"/></g></svg>