<svg xmlns="http://www.w3.org/2000/svg" viewBox="0 0 512 512"><defs><style>.cls-1{fill:#95cf93;}.cls-2{fill:#fff;}.cls-3{fill:#313c81;}.cls-4{fill:#b13874;}.cls-5{fill:#2c366b;}.cls-6{fill:#cbb441;}.cls-7{fill:#e9d146;}.cls-8{fill:#dab8ad;}.cls-9{fill:#f1cbbc;}.cls-10{fill:#c7a197;}.cls-11{fill:#1e2445;}.cls-12{fill:#c25c9e;}.cls-13{fill:#a4548e;}</style></defs><title>Beauty</title><g id="BULINE"><path class="cls-1" d="M512,256a255,255,0,0,1-60.55,165.33l-.08.1c-.68.81-1.37,1.61-2.07,2.41-.46.54-.93,1.07-1.4,1.6h0q-4.87,5.52-10,10.73a256.46,256.46,0,0,1-22.58,20.25l-.81.64a255.26,255.26,0,0,1-81,43q-9.59,3-19.5,5.34a255.65,255.65,0,0,1-182.21-25.52q-4.64-2.56-9.15-5.34-9-5.51-17.52-11.74-3.84-2.79-7.56-5.73l-.81-.64q-5.31-4.23-10.4-8.73A258.33,258.33,0,0,1,62.7,423.84q-5.84-6.7-11.19-13.81A256.12,256.12,0,0,1,40.24,118.16s0,0,0,0A256.79,256.79,0,0,1,63.54,87.2q3.18-3.63,6.5-7.14c1.66-1.75,3.35-3.49,5.06-5.2q7.74-7.73,16.13-14.79A255.54,255.54,0,0,1,256,0C397.38,0,512,114.62,512,256Z"/></g><g id="Icons"><path class="cls-2" d="M493.5,311.57l-.94,8.3a119,119,0,0,1-18,50.66L465.89,384a139.92,139.92,0,0,0-18,41.48h0q-4.87,5.52-10,10.73a147.3,147.3,0,0,1,21.57-56.38L468,366.37A111.15,111.15,0,0,0,484.91,319l.95-8.3a24.65,24.65,0,0,0-21.54-27.19l-8.12-1-8.18-1,.91-7.65,8,1,8.27,1A32.35,32.35,0,0,1,493.5,311.57Z"/><path class="cls-3" d="M440.27,272.11h13.11a3.66,3.66,0,0,1,3.66,3.66v4.33a3.66,3.66,0,0,1-3.66,3.66H440.27a0,0,0,0,1,0,0V272.11A0,0,0,0,1,440.27,272.11Z" transform="translate(30.72 -44.35) rotate(5.86)"/><path class="cls-4" d="M429.16,265.1h12.72a4.05,4.05,0,0,1,4.05,4.05v14.32a4.05,4.05,0,0,1-4.05,4.05H429.16a0,0,0,0,1,0,0V265.1a0,0,0,0,1,0,0Z" transform="translate(30.5 -43.23) rotate(5.86)"/><path class="cls-5" d="M329.3,425.71l-127.76.75V58.75h59.87a77.42,77.42,0,0,1,77.41,77.42Z"/><path class="cls-5" d="M101.39,58.75H201.54a0,0,0,0,1,0,0V426.46a0,0,0,0,1,0,0H78.06A16.07,16.07,0,0,1,62,410.4V98.14A39.39,39.39,0,0,1,101.39,58.75Z"/><circle class="cls-5" cx="81.64" cy="115.8" r="41.47"/><circle class="cls-5" cx="81.64" cy="246.25" r="41.47"/><circle class="cls-5" cx="86.33" cy="363.16" r="41.47"/><circle class="cls-5" cx="98.19" cy="70.88" r="29.61"/><circle class="cls-5" cx="62" cy="180.3" r="36.2"/><circle class="cls-5" cx="145.95" cy="68.69" r="29.61"/><circle class="cls-5" cx="68.58" cy="301.89" r="29.61"/><path class="cls-6" d="M303.08,413v27.5a216.22,216.22,0,0,1-91.3,24.17c-2.9.12-5.83.17-8.77.17a216.4,216.4,0,0,1-97.9-23.23V413A65.86,65.86,0,0,1,171,347.08H237.2A65.88,65.88,0,0,1,303.08,413Z"/><path class="cls-6" d="M131.77,363.16V479.88q-4.64-2.56-9.15-5.34-9-5.51-17.52-11.74-3.84-2.79-7.56-5.73l-.81-.64q-5.31-4.23-10.4-8.73V384a20.88,20.88,0,0,1,20.88-20.88Z"/><path class="cls-7" d="M303.08,413v27.5a216.22,216.22,0,0,1-91.3,24.17,216.27,216.27,0,0,1-89.16-23.06V413a65.85,65.85,0,0,1,65.88-65.88h48.7A65.88,65.88,0,0,1,303.08,413Z"/><rect class="cls-8" x="175.04" y="295.41" width="55.91" height="68.96" rx="13.16"/><path class="cls-9" d="M231,295.41v60.45a8.51,8.51,0,0,1-8.51,8.51H188v-69Z"/><circle class="cls-9" cx="311.49" cy="206.16" r="23.01"/><circle class="cls-8" cx="311.49" cy="206.16" r="9.95"/><circle class="cls-8" cx="91.59" cy="206.16" r="23.01"/><circle class="cls-10" cx="91.59" cy="206.16" r="9.95"/><path class="cls-8" d="M311.49,152.46V206.8a110,110,0,0,1-219.9,0V152.46a78.62,78.62,0,0,1,78.63-78.62h62.64A78.62,78.62,0,0,1,311.49,152.46Z"/><path class="cls-9" d="M311.49,152.46V206.8A109.94,109.94,0,0,1,214.33,316a109.94,109.94,0,0,1-97.17-109.2V152.46a78.62,78.62,0,0,1,78.63-78.62h37.07A78.62,78.62,0,0,1,311.49,152.46Z"/><rect class="cls-11" x="145.95" y="185.84" width="24.72" height="38.35" rx="12.36"/><circle class="cls-2" cx="162.57" cy="200.33" r="6.39"/><path class="cls-11" d="M148,197.13h-.1c-.41,0-10-.63-13.92-9.22a1.92,1.92,0,1,1,3.49-1.58c2.94,6.49,10.56,7,10.63,7a1.92,1.92,0,0,1-.1,3.83Z"/><path class="cls-11" d="M153.62,191.8l-.36,0a12.86,12.86,0,0,1-9.13-9,1.91,1.91,0,0,1,1.23-2.41,1.93,1.93,0,0,1,2.42,1.24c1.76,5.46,6.16,6.36,6.2,6.37a1.92,1.92,0,0,1-.36,3.8Z"/><rect class="cls-11" x="239.64" y="185.84" width="24.72" height="38.35" rx="12.36" transform="translate(504 410.03) rotate(-180)"/><circle class="cls-2" cx="255.41" cy="200.33" r="6.39"/><path class="cls-11" d="M262.31,197.13h.1c.41,0,10-.63,13.92-9.22a1.92,1.92,0,1,0-3.49-1.58c-2.94,6.49-10.56,7-10.63,7a1.92,1.92,0,0,0,.1,3.83Z"/><path class="cls-11" d="M256.68,191.8a2.22,2.22,0,0,0,.37,0,12.86,12.86,0,0,0,9.13-9,1.92,1.92,0,1,0-3.65-1.17c-1.76,5.46-6.16,6.36-6.21,6.37a1.92,1.92,0,0,0,.36,3.8Z"/><rect class="cls-10" x="190.59" y="224.19" width="24.72" height="11.72" rx="5.86"/><path class="cls-6" d="M314,417.42v88a255.65,255.65,0,0,1-182.21-25.52q-4.64-2.56-9.15-5.34-9-5.51-17.52-11.74V417.42Z"/><path class="cls-7" d="M314,417.42v88a255.65,255.65,0,0,1-182.21-25.52q-4.64-2.56-9.15-5.34V417.42Z"/><path class="cls-10" d="M184.1,266.05h37.5a0,0,0,0,1,0,0v0a10.6,10.6,0,0,1-10.6,10.6H194.7a10.6,10.6,0,0,1-10.6-10.6v0A0,0,0,0,1,184.1,266.05Z"/><path class="cls-10" d="M203,266.22c-14.78,10-18.84.16-24.84-6.74h0l11.83-.64a8.46,8.46,0,0,1,12.26,3.67,9.35,9.35,0,0,1,.75,3.71Z"/><path class="cls-10" d="M202.9,266.22c14.79,10,18.84.16,24.84-6.74h0l-11.83-.64a8.46,8.46,0,0,0-12.26,3.67,9.53,9.53,0,0,0-.75,3.71Z"/><circle class="cls-5" cx="114.6" cy="150.1" r="32.69"/><circle class="cls-5" cx="136.13" cy="100.49" r="45.05"/><circle class="cls-5" cx="254.77" cy="64.42" r="29.61"/><circle class="cls-5" cx="228.95" cy="124.78" r="32.69"/><circle class="cls-5" cx="202.85" cy="68.69" r="45.05"/><circle class="cls-5" cx="168.82" cy="124.78" r="32.69"/><polygon class="cls-5" points="201.54 58.75 201.52 124.78 117.16 127.66 127.18 64.84 201.54 58.75"/><path class="cls-9" d="M381,273h43.25a0,0,0,0,1,0,0V290A10.25,10.25,0,0,1,414,300.2H391.23A10.25,10.25,0,0,1,381,290V273A0,0,0,0,1,381,273Z"/><path class="cls-7" d="M273.89,362.12H391.54a0,0,0,0,1,0,0v40.26a0,0,0,0,1,0,0H260.33a0,0,0,0,1,0,0v-26.7a13.56,13.56,0,0,1,13.56-13.56Z" transform="translate(100.39 -66.61) rotate(13.77)"/><path class="cls-7" d="M384.83,297.65H420a0,0,0,0,1,0,0V402.18a15.24,15.24,0,0,1-15.24,15.24H384.83a0,0,0,0,1,0,0V297.65A0,0,0,0,1,384.83,297.65Z"/><polygon class="cls-3" points="321.44 434.04 284.38 434.04 284.38 100.49 321.44 124.78 321.44 434.04"/><path class="cls-5" d="M305.05,467h-3.71V83l37.06,50.42v300.2A33.35,33.35,0,0,1,305.05,467Z"/><rect class="cls-12" x="277.02" y="248.34" width="160.29" height="35.35" rx="11.74" transform="translate(32.23 -38.53) rotate(6.47)"/><rect class="cls-13" x="309.84" y="253.08" width="45.71" height="20.32" rx="8.14" transform="translate(31.76 -35.79) rotate(6.47)"/><path class="cls-8" d="M427.44,255.28v5.23a26.38,26.38,0,0,1-22.38,26.08s0,0,0,0a24.82,24.82,0,0,1-4,.31,26.38,26.38,0,0,1-26.39-26.39v-5.23a9.85,9.85,0,0,1,9.85-9.85h33.07A9.85,9.85,0,0,1,427.44,255.28Z"/><path class="cls-9" d="M427.44,255.28v5.23a26.38,26.38,0,0,1-22.38,26.08s0,0,0,0a26.38,26.38,0,0,1-22.38-26.08v-5.23a9.85,9.85,0,0,1,9.85-9.85h25.09A9.85,9.85,0,0,1,427.44,255.28Z"/><circle class="cls-5" cx="275.1" cy="108.03" r="41.47"/><circle class="cls-5" cx="284.38" cy="92.08" r="29.61"/></g></svg>