<svg xmlns="http://www.w3.org/2000/svg" viewBox="0 0 512 512"><defs><style>.cls-1{fill:#f4d65b;}.cls-2{fill:#78a4ea;}.cls-3{fill:#dab8ad;}.cls-4{fill:#f1cbbc;}.cls-5{fill:#9f3471;}.cls-6{fill:#b13874;}.cls-7{fill:#fff;}.cls-8{fill:#bed5e0;}.cls-9{fill:#cee6f5;}.cls-10{fill:#c06197;}.cls-11{fill:#414980;}.cls-12{fill:#5560b2;}.cls-13{fill:#5c66c7;}</style></defs><title>Beauty</title><g id="BULINE"><path class="cls-1" d="M512,256a254.82,254.82,0,0,1-24.36,109.11C446.68,451.92,358.35,512,256,512a254.8,254.8,0,0,1-132.4-36.86q-5.76-3.48-11.31-7.26a255.39,255.39,0,0,1-22-16.78q-5.09-4.32-9.93-8.9t-9.62-9.56A255.35,255.35,0,0,1,0,256C0,114.62,114.62,0,256,0A254.82,254.82,0,0,1,395.43,41.27Q404,46.82,412,53a257.45,257.45,0,0,1,57.92,62.32A254.8,254.8,0,0,1,512,256Z"/></g><g id="Icons"><path class="cls-2" d="M487.64,365.11C446.68,451.92,358.35,512,256,512a254.8,254.8,0,0,1-132.4-36.86H99.87A29.19,29.19,0,0,1,70.7,446V432.64a256.45,256.45,0,0,1-46.34-67.53Z"/><path class="cls-3" d="M469.92,115.33,382.86,310.09a48.93,48.93,0,0,1-30.2,26.83h0a48.91,48.91,0,0,1-21.55,1.75c-1.21-.17-2.41-.39-3.61-.65s-2.15-.51-3.22-.82A49.13,49.13,0,0,1,293.17,270L395.43,41.27Q404,46.82,412,53A257.45,257.45,0,0,1,469.92,115.33Z"/><path class="cls-4" d="M469.92,115.33,382.86,310.09a49.16,49.16,0,0,1-51.76,28.58c-1.21-.17-2.41-.39-3.61-.65-.82-.59-1.62-1.2-2.39-1.84a49.1,49.1,0,0,1-13.73-58.05L382,120.22,386,111.1l7.54-16.86,4.08-9.12L412,53A257.45,257.45,0,0,1,469.92,115.33Z"/><path class="cls-5" d="M369.78,298.61,337.1,371.72a21.58,21.58,0,0,1-28.51,10.9l-16.29-7.28a21.59,21.59,0,0,1-10.89-28.52l32.68-73.1a30.5,30.5,0,0,1,55.69,24.89Z"/><path class="cls-6" d="M369.78,298.61,337.1,371.72a21.58,21.58,0,0,1-28.51,10.9l-1.12-.5a21.57,21.57,0,0,1-10.88-28.51l32.68-73.11a30.52,30.52,0,0,1,32.23-17.74,30.54,30.54,0,0,1,8.28,35.85Z"/><rect class="cls-3" x="390.58" y="95.86" width="67" height="13.11" rx="6.55" transform="translate(78.72 -164.16) rotate(24.09)"/><rect class="cls-3" x="378.97" y="121.84" width="67" height="13.11" rx="6.55" transform="translate(88.31 -157.16) rotate(24.09)"/><ellipse class="cls-7" cx="323.2" cy="348.44" rx="16.61" ry="4.73" transform="translate(-126.8 501.3) rotate(-65.91)"/><ellipse class="cls-7" cx="323.2" cy="348.44" rx="4.73" ry="16.61" transform="translate(-126.8 501.3) rotate(-65.91)"/><path class="cls-8" d="M235.72,342.88V446a29.18,29.18,0,0,1-29.17,29.19H99.87A29.19,29.19,0,0,1,70.7,446V342.88Z"/><path class="cls-8" d="M235.72,342.88H70.7l5.38-15.56a29.8,29.8,0,0,1,28.15-20.05h98a29.8,29.8,0,0,1,28.15,20.05Z"/><path class="cls-9" d="M235.72,342.88V446a29.18,29.18,0,0,1-29.17,29.19H119A29.2,29.2,0,0,1,89.79,446V342.88Z"/><path class="cls-6" d="M226.18,349.82V440.3c0,15.23-13.07,27.58-29.19,27.58H109.42c-16.12,0-29.18-12.34-29.18-27.57V349.82a7.15,7.15,0,0,1,7.34-6.94H218.84A7.15,7.15,0,0,1,226.18,349.82Z"/><path class="cls-9" d="M235.72,342.88H89.79l5.38-15.56a29.79,29.79,0,0,1,28.15-20.05h78.87a29.8,29.8,0,0,1,28.15,20.05Z"/><path class="cls-9" d="M125.71,263.66h53.16a10.06,10.06,0,0,1,10.06,10.06v33.56a0,0,0,0,1,0,0H115.65a0,0,0,0,1,0,0V273.71A10.06,10.06,0,0,1,125.71,263.66Z"/><rect class="cls-8" x="111.95" y="271.46" width="81.28" height="12.32" rx="6.16"/><rect class="cls-8" x="111.95" y="289.31" width="81.28" height="12.32" rx="6.16"/><circle class="cls-7" cx="152.59" cy="403.84" r="45.41"/><path class="cls-6" d="M167.78,266.55v13.93H154.85v-.1a6.43,6.43,0,0,0-1.9-4.56,6.45,6.45,0,0,0-11,4.63v0H129V266.55a5.79,5.79,0,0,1,5.77-5.77H162A5.77,5.77,0,0,1,167.78,266.55Z"/><path class="cls-6" d="M141.92,280.38v12.11a6.47,6.47,0,1,1-12.93,0V280.38a6.47,6.47,0,0,1,12.93,0Z"/><path class="cls-6" d="M167.78,273.2v12.11a6.47,6.47,0,1,1-12.93,0V273.2a6.47,6.47,0,0,1,12.93,0Z"/><ellipse class="cls-10" cx="162.99" cy="284.39" rx="2.54" ry="4"/><ellipse class="cls-10" cx="137.99" cy="291.78" rx="2.54" ry="4"/><path class="cls-11" d="M241.21,88.37H266a0,0,0,0,1,0,0v35.35a6.77,6.77,0,0,1-6.77,6.77H248a6.77,6.77,0,0,1-6.77-6.77V88.37A0,0,0,0,1,241.21,88.37Z" transform="translate(138.51 -141.66) rotate(42.03)"/><rect class="cls-11" x="199.3" y="98.68" width="15.47" height="124.87" transform="translate(161.13 -97.17) rotate(42.03)"/><path class="cls-12" d="M328.14,82.38l-38.82,43.07a10.7,10.7,0,0,1-15.1.78L234.78,90.68A10.69,10.69,0,0,1,234,75.59l38.82-43.07a33.25,33.25,0,0,1,47-2.44l5.92,5.33A31.73,31.73,0,0,1,328.29,38,33.26,33.26,0,0,1,328.14,82.38Z"/><path class="cls-13" d="M328.14,82.38l-38.82,43.07a10.7,10.7,0,0,1-15.1.78l-28.07-25.31a10.68,10.68,0,0,1-.79-15.09l38.83-43.07A33.25,33.25,0,0,1,328.29,38,33.26,33.26,0,0,1,328.14,82.38Z"/><path class="cls-5" d="M172.36,234.37l-30.51,8.33-6.71,1.83-1.47-1.32,6.26-38.08c3.25-19.69,26.53-29.57,42.22-17.23.53.41,1,.84,1.54,1.29s1,.92,1.45,1.4c.65.67,1.25,1.38,1.81,2.08C198.31,207.14,190.71,229.35,172.36,234.37Z"/><path class="cls-6" d="M172.36,234.37l-30.51,8.33L147,211.49c3.08-18.78,24.38-28.64,40-18.82C198.31,207.14,190.71,229.35,172.36,234.37Z"/><ellipse class="cls-10" cx="165.53" cy="403.84" rx="22.24" ry="6.33" transform="translate(-270.84 412.56) rotate(-68.86)"/><ellipse class="cls-10" cx="165.53" cy="403.84" rx="6.33" ry="22.24" transform="translate(-270.84 412.56) rotate(-68.86)"/></g></svg>